<svg width="915" height="929" viewBox="0 0 915 929" fill="none" xmlns="http://www.w3.org/2000/svg">
<path fill-rule="evenodd" clip-rule="evenodd" d="M634.28 746.877C644.384 694.895 652.118 655.099 705.425 607.716C705.425 607.716 705.425 615.105 695.082 628.399C678.72 649.443 650.742 703.784 653.699 776.207C656.653 848.63 625.615 918.088 501.463 926.96C377.311 935.832 315.236 887.059 316.71 819.072C317.232 795.159 327.461 778.395 341.892 766.171C341.524 764.176 341.681 762.168 342.419 760.31C344.771 754.369 343.483 751.803 336.042 742.224C333.15 738.505 331.074 735.33 329.375 732.731C326.218 727.905 324.361 725.065 320.992 724.412C318.181 723.874 315.858 725.881 313.398 728.006C311.324 729.797 309.154 731.672 306.512 732.178C300.737 733.295 291.685 735.53 290.294 741.278C289.641 743.982 287.556 745.529 285.723 746.889C283.652 748.426 281.904 749.723 282.905 752.179C283.591 753.869 284.498 754.97 285.459 756.136C287.131 758.165 288.968 760.394 290.094 766.274C291.386 773.014 283.686 774.473 283.686 774.473C287.272 782.775 275.703 787.496 275.703 787.496C282.132 776.788 273.32 772.489 273.32 772.489C267.626 769.776 267.908 767.118 268.256 763.828C268.411 762.361 268.58 760.767 268.237 758.987C267.131 753.206 259.06 752.761 253.284 753.867C249.503 754.591 249.101 755.095 248.298 756.103C247.875 756.634 247.339 757.305 246.137 758.223C242.666 760.887 238.085 757.791 235.216 755.852L235.198 755.84C232.329 753.889 225.861 769.604 225.861 769.604C220.575 757.653 227.537 752.316 227.537 752.316C226.266 743.08 229.744 740.411 236.486 739.123C242.453 737.971 245.691 738.923 249.287 739.98C249.749 740.116 250.217 740.253 250.698 740.388C254.92 741.575 259.752 738.153 258.052 734.493C256.35 730.821 247.15 727.103 241.192 727.251C235.231 727.388 236.83 720.101 236.83 720.101C231.849 717.547 221.384 728.05 221.384 728.05C220.543 713.237 233.996 713.157 233.996 713.157C233.853 707.193 237.907 704.912 243.886 702.267C249.866 699.633 254.231 706.771 255.545 711.013C256.362 713.664 258.373 716.465 260.324 719.183C261.503 720.825 262.661 722.438 263.519 723.967C265.357 727.243 271.503 727.413 278.055 727.594C279.6 727.636 281.167 727.68 282.705 727.764C290.779 728.22 302.798 715.437 306.111 709.302C309.432 703.178 315.635 696.496 324.647 699.267C333.661 702.015 340.709 710.157 341.818 715.927C342.587 719.937 345.12 723.125 347.549 726.182C348.622 727.532 349.675 728.857 350.547 730.216C351.244 731.307 351.913 733.03 352.634 734.887C354.859 740.618 357.58 747.624 363.148 741.277C370.52 732.884 381.143 734.548 383.751 736.829C385.684 738.517 387.098 740.25 388.093 742.029C396.41 739.183 404.55 736.823 411.933 734.682C418.985 732.637 425.348 730.793 430.516 728.915C435.089 727.252 439.37 725.764 443.371 724.374C467.816 715.878 481.805 711.017 488.158 691.956C498.481 660.988 476.333 634.31 405.389 629.879C334.443 625.443 248.723 619.542 171.861 550.078C159.825 539.198 149.674 527.629 141.261 515.508C141.277 514.785 141.299 514.002 141.328 513.16C141.392 511.304 141.584 509.768 141.904 508.552C142.032 508.104 142.192 507.656 142.384 507.208C142.64 506.76 142.864 506.344 143.056 505.96C143.376 505.384 143.664 504.84 143.92 504.328C144.176 503.816 144.272 503.272 144.208 502.696C144.08 501.544 143.472 500.488 142.384 499.528C141.296 498.568 140.016 497.672 138.544 496.84C137.072 496.008 135.664 495.208 134.32 494.44C133.04 493.608 132.112 492.808 131.536 492.04C131.472 492.616 131.024 492.84 130.192 492.712C130.192 492.776 130.224 492.872 130.288 493C131.237 495.974 132.124 499.104 132.948 502.391C129.086 495.687 125.71 488.839 122.796 481.866C123.451 481.284 124.029 480.643 124.528 479.944C125.232 478.92 125.712 478.056 125.968 477.352C126.224 476.648 126.736 476.04 127.504 475.528C128.4 474.888 129.392 475.208 130.48 476.488C131.568 477.768 132.624 479.176 133.648 480.712C134.288 481.608 134.864 482.44 135.376 483.208C135.952 483.912 136.464 484.424 136.912 484.744C138.576 487.688 140.496 490.632 142.672 493.576C144.912 496.456 146.672 499.272 147.952 502.024C149.424 502.856 150.608 504.136 151.504 505.864C152.464 507.528 153.168 509 153.616 510.28L153.808 510.376C155.728 511.976 157.648 513.32 159.568 514.408C161.552 515.496 164.112 515.848 167.248 515.464C168.336 514.824 169.392 514.184 170.416 513.544C171.504 512.904 172.464 512.168 173.296 511.336C174 510.504 174 509.448 173.296 508.168C172.144 505.864 170.64 503.944 168.784 502.408C166.928 500.808 164.912 499.368 162.736 498.088C160.624 496.744 158.48 495.432 156.304 494.152C154.128 492.872 152.112 491.368 150.256 489.64C146.992 486.632 143.792 483.496 140.656 480.232C137.584 476.904 134.544 473.832 131.536 471.016C131.6 469.288 131.088 467.912 130 466.888C128.912 465.8 127.504 465.032 125.776 464.584C124.048 464.072 122.224 463.816 120.304 463.816C119.984 464.456 119.6 464.84 119.152 464.968C118.768 465.032 118.32 465.064 117.808 465.064C117.489 465.064 117.138 465.096 116.755 465.16C113.176 453.519 110.772 441.594 109.445 429.475C111.337 430.586 113.485 431.313 115.888 431.656C115.824 431.976 115.856 432.2 115.984 432.328L116.368 432.52C116.624 432.648 116.752 432.776 116.752 432.904C120.272 434.376 123.664 436.008 126.928 437.8C130.256 439.528 133.328 441.544 136.144 443.848L137.2 443.464C137.52 444.04 138.064 444.648 138.832 445.288C139.664 445.928 140.496 446.408 141.328 446.728C143.824 447.816 146.512 448.424 149.392 448.552C152.336 448.68 155.152 448.392 157.84 447.688C160.528 446.984 162.832 445.992 164.752 444.712C165.136 444.136 165.552 443.624 166 443.176C166.512 442.664 167.088 442.28 167.728 442.024C168.688 440.36 169.168 439.112 169.168 438.28C169.168 437.448 168.432 436.584 166.96 435.688C166 435.112 164.88 434.696 163.6 434.44C162.384 434.184 161.392 433.64 160.624 432.808C156.72 433.256 153.072 433.416 149.68 433.288C146.288 433.096 143.088 432.712 140.08 432.136C135.408 431.24 130.96 430.024 126.736 428.488C122.576 426.952 118.224 425.48 113.68 424.072C116.304 422.024 119.12 419.976 122.128 417.928C125.136 415.816 127.536 413.608 129.328 411.304L129.52 411.592C129.712 411.72 129.936 411.72 130.192 411.592C131.728 410.184 133.392 408.808 135.184 407.464C136.976 406.056 138.8 404.712 140.656 403.432L141.808 402.664L143.152 401.704C145.776 399.848 148.464 398.152 151.216 396.616C153.968 395.016 156.752 394.248 159.568 394.312C160.208 393.608 160.656 392.936 160.912 392.296C161.168 391.656 161.296 391.048 161.296 390.472C161.296 389.128 160.656 387.944 159.376 386.92C158.16 385.832 156.72 384.968 155.056 384.328C153.392 383.624 151.824 383.24 150.352 383.176C149.904 384.264 149.264 384.872 148.432 385C147.664 385.128 146.736 385.256 145.648 385.384C142.896 385.704 140.048 386.056 137.104 386.44C134.16 386.76 131.088 387.176 127.888 387.688C128.208 386.984 128.592 386.376 129.04 385.864C129.488 385.288 130.032 384.808 130.672 384.424C130.608 383.912 130.608 383.368 130.672 382.792C130.8 382.216 130.96 381.64 131.152 381.064C131.344 380.296 131.504 379.56 131.632 378.856C131.76 378.152 131.632 377.544 131.248 377.032C130.352 375.816 129.008 374.888 127.216 374.248C125.488 373.608 123.728 373.384 121.936 373.576C120.144 373.768 118.704 374.504 117.616 375.784C118 376.488 118.64 377.128 119.536 377.704C120.496 378.216 121.52 378.728 122.608 379.24C123.696 379.688 124.624 380.232 125.392 380.872V381.832C125.456 382.088 125.488 382.376 125.488 382.696C125.552 383.464 125.616 384.2 125.68 384.904C125.744 385.608 125.744 386.472 125.68 387.496C122.224 388.456 118.48 389.288 114.448 389.992C112.408 390.316 110.491 390.673 108.697 391.062C109.539 378.185 111.429 365.202 114.256 352.213C116.163 353.473 117.955 354.483 119.632 355.24C120.592 354.664 121.52 354.376 122.416 354.376C123.312 354.376 123.984 353.864 124.432 352.84C125.328 349.576 125.712 345.992 125.584 342.088C125.456 338.12 125.2 334.248 124.816 330.472C124.688 328.488 124.528 326.568 124.336 324.712C124.208 322.856 124.176 321.16 124.24 319.624C125.136 318.92 125.968 318.216 126.736 317.512C127.504 316.744 128.336 316.04 129.232 315.4C128.382 314.041 127.207 313.108 125.706 312.6C127.342 308.039 129.082 303.489 130.921 298.956C131.05 299.105 131.191 299.243 131.344 299.368C132.048 299.944 132.848 300.424 133.744 300.808C134.704 301.128 135.536 301.576 136.24 302.152C138.096 301.448 140.304 300.968 142.864 300.712C145.488 300.456 147.728 300.296 149.584 300.232C149.776 301.832 149.84 303.464 149.776 305.128C149.712 306.792 149.648 308.136 149.584 309.16C149.52 309.608 149.488 309.928 149.488 310.12L147.952 309.544C146.928 309.16 146.064 308.84 145.36 308.584C142.736 309.224 140.176 309.64 137.68 309.832C135.184 310.024 133.36 309.928 132.208 309.544L131.056 308.968C130.672 308.776 130.32 308.68 130 308.68C129.68 309.256 129.584 309.768 129.712 310.216C129.84 310.664 130.032 311.112 130.288 311.56C130.48 311.816 130.64 312.072 130.768 312.328C130.896 312.52 130.992 312.776 131.056 313.096C131.632 315.272 131.952 317.832 132.016 320.776C132.08 323.656 131.984 326.664 131.728 329.8C131.536 332.936 131.312 335.88 131.056 338.632C130.928 339.592 130.832 340.52 130.768 341.416C130.704 342.248 130.64 343.048 130.576 343.816C130.96 344.264 131.408 344.968 131.92 345.928C132.432 346.888 133.04 347.912 133.744 349C134.448 350.024 135.248 350.888 136.144 351.592C138.192 352.552 140.56 353.256 143.248 353.704C145.936 354.152 148.72 354.344 151.6 354.28C154.544 354.28 157.392 354.056 160.144 353.608C162.896 353.16 165.296 352.552 167.344 351.784C167.92 351.016 168.624 350.408 169.456 349.96C170.352 349.576 171.184 349.096 171.952 348.52C172.784 347.944 173.36 347.08 173.68 345.928C173.424 345.544 173.232 345.16 173.104 344.776C172.976 344.328 172.944 343.752 173.008 343.048C172.752 343.048 172.368 342.888 171.856 342.568C171.6 342.376 171.28 342.184 170.896 341.992C170.576 341.8 170.096 341.736 169.456 341.8L167.728 339.112C167.152 338.152 166.192 337.64 164.848 337.576C164.4 336.36 163.792 335.304 163.024 334.408C162.32 333.512 161.712 332.552 161.2 331.528C161.328 330.632 161.264 329.704 161.008 328.744C160.816 327.784 160.464 327.304 159.952 327.304C159.888 327.752 159.824 328.168 159.76 328.552C159.696 328.872 159.504 329.128 159.184 329.32C159.12 330.28 159.12 331.208 159.184 332.104C159.248 332.936 159.344 333.768 159.472 334.6C159.6 336.008 159.664 337.416 159.664 338.824C159.728 340.232 159.504 341.736 158.992 343.336C157.968 344.104 156.592 344.744 154.864 345.256C153.136 345.704 151.248 346.024 149.2 346.216C147.152 346.408 145.136 346.44 143.152 346.312C141.232 346.12 139.6 345.736 138.256 345.16C138.256 344.904 138.224 344.488 138.16 343.912C138.096 343.336 138.032 342.728 137.968 342.088C137.968 341.448 138.096 340.872 138.352 340.36C139.312 340.616 140.464 340.84 141.808 341.032C143.152 341.16 144.432 341.192 145.648 341.128C146.864 341 147.728 340.68 148.24 340.168C148.752 340.616 149.328 340.84 149.968 340.84C150.672 340.776 151.376 340.68 152.08 340.552C152.72 340.424 153.328 340.328 153.904 340.264C154.544 340.136 155.216 340.136 155.92 340.264C155.152 338.664 154.064 337.544 152.656 336.904C151.312 336.2 149.776 335.784 148.048 335.656C146.384 335.528 144.656 335.464 142.864 335.464H140.56L138.256 335.272V334.504C138.192 333.928 138.192 333.384 138.256 332.872C138.32 332.296 138.544 331.912 138.928 331.72C139.632 331.592 140.464 331.528 141.424 331.528H144.592C146.64 331.592 148.688 331.56 150.736 331.432C152.784 331.304 154.32 330.824 155.344 329.992C155.472 330.376 155.632 330.568 155.824 330.568C156.016 330.568 156.176 330.376 156.304 329.992C155.536 329.672 154.576 329.032 153.424 328.072C152.272 327.112 150.864 326.536 149.2 326.344C148.432 326.28 147.632 326.312 146.8 326.44C145.968 326.504 145.136 326.632 144.304 326.824C143.344 327.016 142.384 327.176 141.424 327.304C140.464 327.432 139.472 327.432 138.448 327.304V325.288C138.512 324.52 138.608 323.912 138.736 323.464C139.568 323.272 140.528 323.144 141.616 323.08C142.768 323.016 143.952 322.984 145.168 322.984C147.216 322.92 149.232 322.824 151.216 322.696C153.264 322.504 154.928 321.96 156.208 321.064C155.12 319.912 153.936 319.144 152.656 318.76C151.376 318.376 150 318.184 148.528 318.184C148.016 318.184 147.472 318.216 146.896 318.28H145.168C144.208 318.344 143.184 318.408 142.096 318.472C141.008 318.472 139.888 318.44 138.736 318.376C138.736 318.12 138.768 317.768 138.832 317.32V316.072C138.832 315.688 138.704 315.272 138.448 314.824C139.856 314.248 141.296 313.928 142.768 313.864C144.304 313.8 145.936 313.8 147.664 313.864H149.968H152.464C152.976 313.352 153.52 313.064 154.096 313C154.672 312.936 155.28 312.968 155.92 313.096C155.984 312.712 156.08 312.328 156.208 311.944C156.336 311.496 156.432 311.08 156.496 310.696C156.816 309.544 157.104 308.36 157.36 307.144C157.616 305.864 157.584 304.552 157.264 303.208C158.544 303.272 159.6 303.112 160.432 302.728C161.328 302.28 162.128 301.8 162.832 301.288L163.408 300.904L163.984 300.52C163.024 299.176 161.744 298.152 160.144 297.448C158.608 296.68 156.976 296.008 155.248 295.432C153.584 294.792 152.048 294.024 150.64 293.128C149.936 293.96 148.816 294.568 147.28 294.952C145.808 295.272 144.208 295.432 142.48 295.432C140.752 295.432 139.248 295.4 137.968 295.336C137.904 294.504 138 293.544 138.256 292.456C138.576 291.368 138.96 290.408 139.408 289.576H141.808C142.704 289.512 143.6 289.48 144.496 289.48C147.44 289.48 150.416 289.416 153.424 289.288C156.432 289.16 158.992 288.776 161.104 288.136C159.888 286.088 158.352 284.776 156.496 284.2C154.64 283.56 152.592 283.24 150.352 283.24C148.624 283.24 146.8 283.336 144.88 283.528C142.96 283.656 140.976 283.784 138.928 283.912C138.683 282.873 138.614 282.038 138.72 281.408C180.223 197.258 272.908 137.514 350.701 133.276C431.993 128.84 510.329 133.276 578.31 190.918C646.3 248.559 653.692 278.117 658.122 340.194C659.498 359.502 657.369 378.515 650.51 395.982C653.589 397.191 655.921 399.032 656.993 401.741C660.747 411.26 671.195 422.792 681.632 434.311C687.074 440.316 692.512 446.319 696.997 452.03C707.091 464.89 689.476 475.872 679.75 481.936C676.871 483.731 674.683 485.095 674.11 485.949C673.534 486.81 672.442 488.213 671.086 489.955C666.532 495.806 659.006 505.477 658.114 511.197C656.968 518.62 654.26 521.061 654.26 521.061C656.458 523.495 659.155 531.369 659.591 532.948C660.028 534.516 664.937 539.402 667.973 540.594C671.009 541.786 671.417 543.867 669.177 547.362C666.933 550.863 676.931 552.14 676.931 552.14C667.429 556.308 665.362 551.302 665.362 551.302C656.157 554.701 654.88 549.478 654.843 545.093C654.821 542.319 652.827 539.963 650.886 537.671C649.752 536.331 648.635 535.012 647.943 533.644C646.387 530.56 645.919 530.558 643.739 530.544C643.295 530.541 642.78 530.538 642.17 530.508C638.804 530.332 637.076 533.4 633.62 539.535C633.379 539.963 633.13 540.405 632.871 540.862C629.894 546.136 630.246 548.668 630.786 552.55C630.966 553.846 631.167 555.294 631.272 557.044C631.558 561.844 630.253 562.057 628.12 562.407C627.147 562.566 626.001 562.754 624.755 563.418C620.772 565.539 626.212 575.363 626.212 575.363C614.851 570.402 617.545 563.059 617.545 563.059C607.131 554.774 616.211 543.633 617.297 542.652C617.718 542.272 619.067 540.391 620.72 538.087C623.33 534.447 626.698 529.752 628.353 528.261C630.64 526.195 630.102 525.276 629.029 523.441C628.832 523.104 628.618 522.737 628.399 522.326C626.985 519.669 621.611 513.722 619.088 512.564C618.634 512.354 618.182 512.11 617.73 511.867C615.672 510.759 613.615 509.651 611.397 511.652C608.694 514.087 605.681 512.388 605.681 512.388L602.211 509.634C598.745 506.879 591.524 516.823 591.524 516.823C588.1 508.134 600.986 503.379 600.986 503.379C601.245 498.236 609.344 496.327 611.1 497.193C611.534 497.404 612.227 497.77 613.063 498.211C615.619 499.559 619.51 501.612 621.428 502.102C623.979 502.747 631.865 504.959 631.865 504.959C632.967 502.555 637.954 501.99 641.116 501.631C641.276 501.613 641.431 501.595 641.581 501.578C644.694 501.224 646.877 493.853 646.818 489.981C646.758 486.104 649.367 475.407 652.933 471.194C654.098 469.822 656.271 468.281 658.769 466.509C663.932 462.848 670.479 458.204 672.359 452.048C674.692 444.393 659.026 439.071 640.49 432.775C636.922 431.563 633.248 430.315 629.576 429.007C614.356 445.218 592.418 458.536 562.06 467.294C494.076 486.9 464.317 481.112 429.651 474.368L428.488 474.142C417.659 485.843 406.704 488.74 397.255 491.239C391.846 492.669 386.931 493.969 382.815 496.715C379.143 499.155 375.907 501.755 373.028 504.338C375.052 507.525 377.299 510.792 379.85 514.167C390.883 528.792 413.746 536.78 430.37 523.364C438.61 516.712 442.947 510.55 446.704 505.212C450.527 499.78 453.749 495.201 459.873 491.828C472.017 485.134 486.694 493.675 486.694 493.675C461.795 487.017 453.464 499.466 444.753 512.482C437.605 523.163 430.201 534.226 413.176 535.423C391.11 536.968 377.637 523.347 368.996 508.181C365.067 512.177 362.117 515.963 360.178 518.865C356.947 523.715 355.194 523.638 352.388 523.515C351.915 523.494 351.412 523.472 350.867 523.472C347.098 523.472 344.86 522.291 344.86 522.291C341.564 523.711 336.844 523.243 335.906 519.458C335.361 517.286 335.808 516.285 336.075 515.686C336.271 515.246 336.37 515.024 335.906 514.714C332.742 512.604 333.91 509.017 336.271 509.97C336.378 510.012 336.467 510.057 336.555 510.101C336.597 510.122 336.64 510.144 336.684 510.164C337.22 509.48 337.99 508.613 338.962 507.575C338.569 504.519 338.375 500.283 339.92 498.293C341.141 496.726 341.279 498.156 341.487 500.315C341.606 501.549 341.749 503.022 342.129 504.309C342.944 503.483 343.803 502.624 344.684 501.744L344.889 501.538C344.883 499.405 345.174 497.325 346.123 496.104C347.348 494.529 347.488 495.98 347.697 498.152C347.714 498.32 347.73 498.494 347.748 498.67C348.598 497.821 349.435 496.971 350.256 496.136L350.371 496.019C350.334 493.778 350.599 491.549 351.597 490.266C352.821 488.688 352.964 490.152 353.176 492.329C353.199 492.558 353.222 492.795 353.247 493.037C354.222 492.005 355.12 491.03 355.873 490.157C355.941 488.321 356.241 486.588 357.07 485.522C358.102 484.194 358.359 485.048 358.538 486.64C358.738 486.349 358.924 486.075 359.137 485.773C358.863 484.997 358.599 484.244 358.345 483.509C356.102 483.862 354.117 484.586 352.327 485.886C348.313 488.806 342.84 490.63 338.461 490.63C336.307 490.63 334.329 491.866 332.18 493.21C329.961 494.596 327.56 496.097 324.594 496.468C318.756 497.198 315.106 492.454 321.31 493.914C324.797 494.734 328.399 492.096 331.857 489.564C334.552 487.59 337.159 485.681 339.556 485.521C344.422 485.196 351.295 481.41 356.096 477.236C354.012 471.82 351.404 468.951 348.815 467.646C347.632 468.251 346.537 468.963 345.559 469.824C340.407 474.317 335.119 474.351 330.726 473.228C330.55 474.101 330.327 474.995 330.094 475.925L330.067 476.034C328.972 480.413 324.593 482.237 326.053 479.318C326.957 477.51 326.877 474.026 326.17 471.632C326.042 471.576 325.909 471.519 325.778 471.463C325.605 471.389 325.435 471.316 325.278 471.245C324.673 470.965 324.148 470.772 323.626 470.581C323.362 470.484 323.1 470.388 322.829 470.281C322.814 470.351 322.801 470.422 322.787 470.493C322.66 471.143 322.517 471.877 321.674 472.386C320.924 472.836 320.658 472.183 320.301 471.307C319.98 470.52 319.586 469.552 318.7 469.044C318.533 469.012 318.363 468.976 318.194 468.94C317.782 468.853 317.368 468.765 316.981 468.736C316.923 468.739 316.871 468.735 316.82 468.731C316.741 468.725 316.663 468.719 316.565 468.736C315.36 468.937 315.371 470.133 315.381 471.229C315.389 472.123 315.397 472.951 314.741 473.115C314.084 473.278 314.01 472.274 313.929 471.184C313.862 470.29 313.792 469.338 313.392 468.924C312.728 469.044 312.006 469.243 311.317 469.454C309.874 470.571 309.053 472.55 309.632 474.574C310.362 477.129 309.632 478.588 307.443 476.399C306.514 475.47 305.995 473.36 305.687 471.239C301.334 472.174 297.665 470.96 296.037 466.985C293.386 460.554 295.618 455.987 298.791 453.934C296.923 452.531 294.851 451.414 292.516 450.963C290.02 450.481 286.294 450.503 282.178 450.526C270.775 450.593 256.377 450.677 256.831 440.107C257.253 430.265 266.191 422.346 278.606 420.932C284.328 420.282 290.785 421.012 297.493 423.572C318.761 431.697 348.817 418.035 331.561 406.803C331.561 406.803 343.563 411.94 336.801 420.128C332.682 425.111 320.434 430.397 308.495 429.49C301.89 428.983 297.408 427.567 293.526 426.341C288.635 424.796 284.696 423.551 278.661 424.803C273.191 425.926 261.818 429.296 261.282 438.259C260.789 446.513 266.678 446.65 274.868 446.841C275.583 446.857 276.315 446.874 277.062 446.897C284.196 447.108 294.732 447.581 302.649 452.137C303.563 451.389 304.193 450.187 304.889 448.857C306.269 446.221 307.91 443.085 312.55 441.993C318.776 440.527 320.164 442.193 321.581 443.895C321.987 444.383 322.396 444.874 322.922 445.294C325.28 447.188 327.637 448.596 327.637 448.596C327.897 447.047 329.293 447.06 330.655 447.072C331.774 447.083 332.871 447.093 333.296 446.236C334.24 444.354 338.011 443.886 339.431 444.354C343.006 445.545 346.721 443.801 349.646 440.579C353.152 436.73 352.492 434.699 351.92 432.939C351.722 432.329 351.534 431.752 351.534 431.143C351.534 430.645 351.453 429.999 351.36 429.254C351.216 428.105 351.043 426.721 351.092 425.282C348.629 424.273 346.003 422.756 346.003 422.756C346.003 422.756 349.164 423.377 351.328 423.389C351.36 423.24 351.388 423.092 351.425 422.947C349.484 420.441 348.041 418.158 348.922 418.377C349.573 418.54 351.058 419.318 352.72 420.259C352.802 420.145 352.888 420.037 352.976 419.928C352.854 419.064 352.709 418.094 352.564 417.125C352.202 414.706 351.841 412.296 351.841 411.567C351.841 410.595 353.988 414.78 355.428 417.699C358.31 415.569 360.879 415.184 363.949 414.791C367.727 414.323 368.511 408.513 368.511 408.513C368.747 407.571 368.846 406.601 368.941 405.66C369.23 402.826 369.491 400.263 373.386 399.556C378.574 398.604 375.27 399.083 375.27 399.083C375.27 399.083 382.816 380.689 385.18 375.971C386.279 373.768 387.173 371.464 387.958 369.44C388.855 367.128 389.609 365.184 390.363 364.18C390.756 363.657 390.967 363.387 391.208 363.079C391.837 362.276 392.667 361.216 397.436 354.741C404.041 345.786 407.186 341.222 406.715 335.563C406.246 329.907 410.958 335.563 409.073 343.115C407.744 348.424 404.861 353.656 402.775 357.441C401.897 359.034 401.16 360.371 400.74 361.349C399.326 364.645 393.196 380.21 391.779 389.173C390.934 394.513 390.091 398.011 389.547 400.265C389.179 401.792 388.948 402.748 388.948 403.319C388.948 403.905 389.271 404.086 389.65 404.299C390.187 404.601 390.835 404.965 390.835 406.626C390.835 406.626 391.305 402.064 394.136 405.366C394.136 405.366 400.109 399.556 400.582 394.829C400.582 394.829 401.996 400.017 400.109 404.265C400.109 404.265 403.41 398.768 406.714 399.704C408.753 400.285 412.292 395.47 416.366 389.927C418.889 386.495 421.617 382.783 424.322 379.899C426.818 377.237 430.018 374.908 433.426 372.427C439.676 367.878 446.624 362.821 451.2 354.275C458.278 341.067 459.695 338.236 460.63 332.577C461.583 326.918 464.408 327.392 463.934 334.935C463.467 342.481 458.748 358.047 452.146 366.537C450.02 369.271 447.307 372.167 444.496 375.168C438.576 381.488 432.219 388.275 429.983 394.994C426.681 404.886 423.375 407.253 423.375 407.253C423.375 407.253 424.794 406.78 424.321 411.501C423.845 416.21 427.146 413.216 429.983 410.4C431.533 408.846 432.941 408.571 435.375 408.095C437.379 407.703 440.08 407.175 444.128 405.684C446.055 404.974 447.633 404.439 448.946 403.993C453.741 402.364 455.011 401.933 456.86 398.603C459.218 394.36 460.162 398.603 457.804 404.732C456.193 408.923 453.599 414.841 449.77 420.443C452.844 420.269 457.209 419.439 461.314 416.429C464.992 413.732 468.053 410.417 470.247 408.041C472.406 405.702 473.725 404.273 473.966 405.239C474.152 405.988 472.757 408.102 471.19 410.477C468.681 414.279 465.732 418.748 468.127 419.348C472.018 420.323 474.941 419.836 476.885 416.917C477.213 416.424 477.528 415.903 477.845 415.378C479.405 412.794 481.028 410.106 484.668 410.106C486.891 410.106 486.732 410.231 485.846 410.928C484.986 411.603 483.443 412.815 482.724 414.97C481.264 419.349 486.127 420.812 489.047 418.865C490.096 418.166 491.397 416.9 492.768 415.567C495.213 413.189 497.882 410.592 499.752 410.592C501.171 410.592 500.405 411.628 499.411 412.972C498.36 414.392 497.055 416.156 497.805 417.405C499.265 419.837 503.159 421.3 506.078 417.405C508.997 413.511 511.429 411.567 511.429 411.567C511.429 411.567 512.169 414.914 510.733 419.008C512.535 418.607 514.325 418.193 516.107 417.72C517.41 416.805 518.593 415.733 519.214 414.487C521.158 410.593 523.105 408.649 523.105 412.54V415.67C523.837 415.427 524.547 415.146 525.258 414.865C525.682 414.698 526.106 414.53 526.535 414.37C527.282 413.737 527.995 412.976 528.457 412.052C529.717 409.532 530.25 409.928 530.373 412.899C532.175 412.138 533.892 411.271 535.612 410.403L535.613 410.402C535.876 408.412 536.172 406.422 537.216 408.161C537.404 408.475 537.532 408.9 537.615 409.399C548.169 403.677 556.969 395.735 562.061 384.536C563.518 381.329 564.746 377.954 565.781 374.458C559.56 372.805 552.011 367.123 551.518 359.428C551.302 356.033 551.695 353.231 552.024 350.879C552.61 346.696 552.997 343.94 549.4 341.813C543.916 338.57 538.122 334.742 535.118 325.094C535.82 327.624 537.748 336.372 532.845 342.215C527.066 349.111 527.5 357.458 529.413 361.15C530.633 363.504 534 365.701 537.662 368.09C539.731 369.439 541.895 370.85 543.818 372.386C549.14 376.64 550.585 380.183 543.261 387.099C543.261 387.099 543.869 396.53 535.687 398.047C535.687 398.047 540.631 387.293 537.195 385.175C537.195 385.175 533.657 386.626 532.827 382.769C531.995 378.908 531.02 375.519 528.325 371.069C525.623 366.621 517.612 369.215 516.264 371.867C514.909 374.518 512.666 379.966 515.043 383.8C517.425 387.635 514.519 390.31 509.733 390.845C509.733 390.845 506.556 396 511.905 401.804C511.905 401.804 503.808 398.212 504.601 389.215C504.601 389.215 499.15 386.98 501.707 382.139C502.555 380.541 503.249 378.893 503.936 377.262C505.326 373.962 506.689 370.728 509.239 368.101C513.051 364.175 506.577 355.446 501.981 358.613C500.997 359.29 500.043 360.095 499.097 360.893C495.62 363.825 492.241 366.674 487.807 362.847C487.807 362.847 485.598 360.096 481.384 368.518C481.384 368.518 476.974 363.01 485.256 357.93C485.256 357.93 481.752 351.173 489.612 349.049C493.62 347.964 497.939 348.845 501.985 349.672C505.874 350.466 509.511 351.208 512.379 350.104C517.277 348.214 517.595 344.878 518.135 339.199C518.24 338.096 518.354 336.904 518.511 335.616C519.477 327.71 519.783 317.025 519.247 312.233C518.711 307.447 521.269 289.19 533.433 298.253C536.237 300.341 538.563 301.862 540.59 303.188C546.37 306.968 549.718 309.157 554.78 318.368C557.581 323.457 559.242 326.476 560.227 328.268L560.974 329.626C562.531 329.375 565.277 329.315 567.811 329.674C560.553 287.3 528.335 242.478 465.984 226.388C374.352 202.74 236.898 213.086 204.385 375.666C171.932 537.896 357.32 560.328 406.561 566.286L406.869 566.323C455.647 572.241 565.032 593.127 570.927 662.396C574.262 701.581 567.252 728.995 547.513 748.381C548.397 749.385 549.132 750.354 549.583 751.084L550.448 750.902C552.345 750.503 555.827 749.771 562.218 748.404C572.548 746.217 576.414 747.325 583.086 749.237C585.425 749.907 588.11 750.677 591.539 751.437C606.425 754.744 594.209 768.679 590.215 771.416C586.219 774.153 578.296 781.404 572.914 787.335C572.039 788.298 571.208 789.165 570.438 789.967C566.474 794.102 564.142 796.534 565.921 801.509C566.962 804.415 569.916 806.694 573.074 809.131C576.36 811.667 579.868 814.373 581.675 818.135C585.222 825.513 577.778 827.281 577.778 827.281C579.36 836.916 572.267 837.167 572.267 837.167C575.908 828.444 572.367 828.569 572.367 828.569C566.539 827.708 566.487 823.263 566.434 818.692C566.42 817.451 566.405 816.201 566.275 815.01C565.665 809.433 554.771 810.231 554.286 815.705C553.965 819.382 552.396 822.551 550.796 825.782C550.008 827.373 549.213 828.978 548.556 830.667C546.557 835.788 541.271 833.119 541.271 833.119C534.954 839.619 526.903 835.822 526.903 835.822C534.825 836.084 536.661 830.28 536.661 830.28C533.927 826.278 534.058 822.321 538.534 821.614C543.01 820.908 545.686 815.616 546.815 812.845C547.944 810.074 544.657 802.285 539.497 803.152C534.345 804.008 531.124 805.501 527.643 807.406C524.162 809.31 522.933 805.661 522.933 805.661C519.076 804.429 514.144 815.263 514.144 815.263C509.919 808.044 517.494 802.308 517.494 802.308C517.947 792.193 521.587 790.972 528.318 792.227C530.756 792.681 533.257 793.403 535.649 794.092C539.864 795.308 543.739 796.426 546.329 795.807C550.395 794.838 557.026 789.683 558.474 780.766C559.702 773.199 567.6 768.924 569.996 767.789C560.694 771.836 553.978 769.94 547.912 767.903C543.931 766.56 542.087 768.665 539.291 771.859C537.719 773.654 535.846 775.794 533.122 777.858C525.547 783.594 513.312 779.273 509.377 774.209C508.838 773.514 508.721 772.613 508.915 771.575C499.666 775.053 489.321 778.052 477.815 780.641C405.392 796.902 377.308 817.588 427.558 853.064C477.816 888.529 610.23 852.129 625.612 788.03C629.132 773.365 631.778 759.748 634.28 746.877ZM133.037 293.849C132.844 293.109 132.728 292.357 132.688 291.592C132.688 290.376 132.72 289.192 132.784 288.04C132.848 287.016 132.88 286.024 132.88 285.064C132.88 284.104 132.752 283.144 132.496 282.184C132.432 281.928 132.272 281.576 132.016 281.128C131.76 280.616 131.44 280.072 131.056 279.496C130.48 278.472 129.904 277.416 129.328 276.328C128.816 275.176 128.752 274.376 129.136 273.928C129.2 273.736 129.456 273.64 129.904 273.64C130.096 273.576 130.288 273.544 130.48 273.544C130.736 273.48 130.928 273.288 131.056 272.968C132.592 273.48 134.192 274.184 135.856 275.08C137.584 275.912 138.8 277.256 139.504 279.112C139.12 279.88 138.864 280.616 138.736 281.32C138.73 281.349 138.725 281.378 138.72 281.408C136.855 285.19 135.093 289.021 133.44 292.899C133.305 293.216 133.171 293.532 133.037 293.849ZM132.582 294.929C132.733 294.569 132.884 294.209 133.037 293.849C133.15 294.285 133.29 294.717 133.456 295.144C133.069 295.144 132.778 295.073 132.582 294.929ZM132.085 296.119L132.016 295.912C131.888 295.528 131.952 295.08 132.208 294.568L132.496 294.856C132.522 294.882 132.551 294.907 132.582 294.929C132.415 295.326 132.25 295.723 132.085 296.119ZM132.085 296.119L132.208 296.488C132.118 296.481 132.028 296.476 131.938 296.474C131.987 296.355 132.036 296.237 132.085 296.119ZM131.938 296.474C131.596 297.3 131.257 298.128 130.921 298.956C130.457 298.418 130.15 297.723 130 296.872C130.621 296.59 131.267 296.457 131.938 296.474ZM117.855 337.501C117.816 337.012 117.768 336.525 117.712 336.04C117.712 335.592 117.68 335.144 117.616 334.696C117.552 334.184 117.52 333.704 117.52 333.256C117.52 332.68 117.488 332.072 117.424 331.432V329.512C117.424 327.4 117.36 325.192 117.232 322.888C117.168 320.584 116.784 318.408 116.08 316.36C113.52 316.296 111.152 316.424 108.976 316.744C106.864 317.064 105.104 317.768 103.696 318.856C103.632 319.496 103.568 320.168 103.504 320.872C103.44 321.576 103.344 322.28 103.216 322.984C106.224 322.28 108.912 322.408 111.28 323.368C113.712 324.328 115.504 325.384 116.656 326.536H116.56C114.32 326.984 111.984 327.4 109.552 327.784C107.12 328.168 105.136 328.264 103.6 328.072C103.152 328.584 102.896 329.352 102.832 330.376C102.768 331.336 102.672 332.072 102.544 332.584C105.424 331.944 107.952 332.072 110.128 332.968C112.368 333.8 114.384 334.728 116.176 335.752L116.272 335.848C115.184 336.232 113.808 336.584 112.144 336.904C110.544 337.16 108.848 337.352 107.056 337.48C105.328 337.608 103.728 337.672 102.256 337.672C102.256 337.8 102.224 337.96 102.16 338.152C102.032 339.432 101.904 340.936 101.776 342.664C101.712 344.392 101.712 346.088 101.776 347.752C101.904 349.352 102.288 350.696 102.928 351.784C102.928 352.488 102.8 352.936 102.544 353.128C102.288 353.32 101.968 353.448 101.584 353.512C101.264 353.64 101.008 353.928 100.816 354.376C99.536 353.928 98.416 353.16 97.456 352.072C96.496 350.984 95.696 349.8 95.056 348.52C94.416 347.176 93.904 345.992 93.52 344.968C93.456 344.52 93.52 344.296 93.712 344.296C93.968 344.296 94.224 344.328 94.48 344.392C94.8 344.52 95.024 344.584 95.152 344.584C95.216 344.456 95.28 344.296 95.344 344.104C95.92 342.568 96.336 341.032 96.592 339.496C96.912 337.896 96.56 336.424 95.536 335.08C96.368 334.504 96.976 333.544 97.36 332.2C97.744 330.792 97.872 329.352 97.744 327.88C97.68 326.408 97.296 325.288 96.592 324.52L98.128 324.424C98.32 322.312 98.032 320.808 97.264 319.912C96.56 318.952 95.6 318.056 94.384 317.224C94.32 317.032 94.352 316.808 94.48 316.552C94.544 316.424 94.576 316.264 94.576 316.072C94.64 315.88 94.576 315.624 94.384 315.304C96.624 313.96 99.44 313.16 102.832 312.904C106.288 312.584 109.744 312.36 113.2 312.232C113.392 311.912 113.52 311.528 113.584 311.08C113.648 310.632 113.808 310.28 114.064 310.024C115.728 310.728 117.52 311.176 119.44 311.368C121.424 311.56 123.312 311.912 125.104 312.424C125.31 312.476 125.511 312.534 125.706 312.6C122.739 320.87 120.113 329.179 117.855 337.501ZM117.855 337.501C117.952 338.694 118 339.903 118 341.128C118 342.792 117.616 344.328 116.848 345.736C116.483 345.788 116.107 345.819 115.721 345.829C116.391 343.052 117.103 340.276 117.855 337.501ZM115.721 345.829C115.208 347.957 114.72 350.085 114.256 352.213C113.908 351.982 113.556 351.743 113.2 351.496C110.96 349.896 109.104 348.136 107.632 346.216L103.408 346.024C104.24 345.192 105.328 344.808 106.672 344.872C108.08 344.936 109.552 345.096 111.088 345.352L113.968 345.736C114.575 345.812 115.159 345.843 115.721 345.829ZM108.289 399.746C107.319 400.281 106.396 400.87 105.52 401.512C103.728 401.256 102.288 400.552 101.2 399.4C100.112 398.184 99.152 396.872 98.32 395.464C97.488 393.992 96.464 392.744 95.248 391.72C96.72 391.016 98.224 390.824 99.76 391.144C101.36 391.464 102.704 391.848 103.792 392.296C105.31 391.853 106.945 391.442 108.697 391.062C108.507 393.962 108.371 396.857 108.289 399.746ZM108.289 399.746C110.51 398.519 112.979 397.572 115.696 396.904C119.6 395.88 123.76 395.112 128.176 394.6C132.592 394.088 136.912 393.512 141.136 392.872C139.472 394.664 137.808 396.36 136.144 397.96C134.544 399.56 133.2 400.872 132.112 401.896C130.96 402.984 129.52 404.264 127.792 405.736C126.064 407.208 124.368 408.2 122.704 408.712C122.256 409.352 121.68 410.088 120.976 410.92C120.272 411.688 119.632 412.232 119.056 412.552L118.864 412.456C118.8 412.392 118.704 412.36 118.576 412.36C118.448 412.936 118.128 413.416 117.616 413.8C117.104 414.184 116.528 414.6 115.888 415.048C116.016 415.304 115.984 415.528 115.792 415.72C115.728 415.784 115.664 415.88 115.6 416.008C115.536 416.136 115.568 416.36 115.696 416.68C114.928 416.616 114.16 416.808 113.392 417.256C112.688 417.704 111.984 418.184 111.28 418.696C110.768 419.144 110.256 419.56 109.744 419.944C109.381 420.171 109.019 420.333 108.656 420.432C108.208 413.585 108.092 406.684 108.289 399.746ZM108.656 420.432C108.854 423.457 109.117 426.472 109.445 429.475C109.221 429.343 109.001 429.206 108.784 429.064C107.888 429.64 106.704 430.088 105.232 430.408C103.824 430.728 102.448 431.112 101.104 431.56C99.76 431.944 98.672 432.648 97.84 433.672C96.048 433.224 94.64 432.424 93.616 431.272C92.592 430.12 91.664 428.776 90.832 427.24C90.064 425.64 89.168 424.104 88.144 422.632C89.808 422.824 91.408 423.048 92.944 423.304C94.544 423.496 95.984 423.88 97.264 424.456C99.568 424.008 101.424 423.496 102.832 422.92C104.304 422.344 106.032 421.672 108.016 420.904C108.08 421.096 108.016 421.256 107.824 421.384C107.696 421.512 107.632 421.64 107.632 421.768C108.016 422.024 108.304 421.992 108.496 421.672C108.752 421.352 108.656 420.968 108.208 420.52C108.357 420.502 108.507 420.472 108.656 420.432ZM117.536 467.636C117.21 467.37 116.885 467.12 116.56 466.888C116.176 466.504 115.888 466.056 115.696 465.544C116.016 465.288 116.368 465.16 116.752 465.16C116.753 465.16 116.754 465.16 116.755 465.16C117.009 465.986 117.27 466.812 117.536 467.636ZM119.138 472.375C120.265 475.563 121.484 478.727 122.796 481.866C122.611 482.03 122.421 482.19 122.224 482.344C121.392 483.048 120.72 483.752 120.208 484.456C120.144 484.52 120.144 484.744 120.208 485.128C120.272 485.448 120.272 485.672 120.208 485.8C119.248 487.464 118.064 488.904 116.656 490.12C115.248 491.272 114.192 492.36 113.488 493.384L113.2 494.44C113.008 495.08 112.752 495.688 112.432 496.264C112.176 496.84 111.856 497.032 111.472 496.84C111.6 497.416 112.016 497.704 112.72 497.704C113.424 497.64 113.904 497.8 114.16 498.184C116.4 499.016 117.968 500.232 118.864 501.832C119.76 503.432 120.24 505.256 120.304 507.304C120.368 509.352 120.24 511.496 119.92 513.736C119.6 516.232 119.28 518.856 118.96 521.608C118.64 524.296 118.096 526.888 117.328 529.384C116.624 531.816 115.472 533.928 113.872 535.72C114.256 536.296 114.256 536.936 113.872 537.64C113.488 538.344 112.976 539.016 112.336 539.656C111.696 540.232 111.184 540.648 110.8 540.904C111.12 541.288 110.928 541.864 110.224 542.632C109.52 543.464 108.56 544.072 107.344 544.456C106.192 544.904 105.008 544.744 103.792 543.976L104.752 541.864C105.136 541.224 105.712 540.776 106.48 540.52L106.192 540.232C105.936 540.04 105.936 539.912 106.192 539.848C106.064 539.72 106.32 539.272 106.96 538.504C107.216 538.12 107.472 537.704 107.728 537.256C108.048 536.808 108.208 536.424 108.208 536.104C108.208 536.04 108.08 535.944 107.824 535.816C107.667 535.712 107.574 535.671 107.546 535.695C107.739 535.191 108.055 534.688 108.496 534.184C108.944 533.608 109.296 532.968 109.552 532.264C110.128 530.728 110.608 528.776 110.992 526.408C111.376 523.976 111.696 521.48 111.952 518.92C112.208 516.36 112.4 514.152 112.528 512.296V511.432C112.592 511.112 112.624 510.824 112.624 510.568C112.752 509.48 112.816 508.52 112.816 507.688C112.88 506.792 112.784 506.056 112.528 505.48C112.272 504.712 111.856 504.104 111.28 503.656C110.704 503.144 110.16 502.664 109.648 502.216C109.2 501.704 108.944 501.064 108.88 500.296C108.048 501.576 106.8 503.048 105.136 504.712C103.536 506.376 101.776 508.008 99.856 509.608C98 511.208 96.208 512.68 94.48 514.024C94.288 514.152 94 514.376 93.616 514.696C92.656 515.464 91.6 516.2 90.448 516.904C89.296 517.544 88.048 517.896 86.704 517.96C85.36 517.96 83.824 517.352 82.096 516.136C87.024 513.384 91.152 509.704 94.48 505.096C94.672 505.032 94.928 505 95.248 505C95.504 505 95.76 504.968 96.016 504.904C96.336 504.84 96.784 504.584 97.36 504.136C97.296 504.008 97.104 503.976 96.784 504.04C96.336 504.104 96.048 504.104 95.92 504.04C96.752 503.208 97.616 502.632 98.512 502.312C99.408 501.992 100.176 501.416 100.816 500.584C100.432 500.584 100.048 500.68 99.664 500.872C99.344 501.064 99.024 501.16 98.704 501.16C99.984 499.368 101.488 497.352 103.216 495.112C104.944 492.872 106.736 490.568 108.592 488.2C110.448 485.768 112.144 483.4 113.68 481.096C114.64 479.688 115.6 478.152 116.56 476.488C117.5 474.901 118.36 473.53 119.138 472.375ZM107.546 535.695C107.539 535.7 107.536 535.708 107.536 535.72C107.539 535.712 107.542 535.703 107.546 535.695ZM119.138 472.375C118.582 470.801 118.048 469.221 117.536 467.636C117.658 467.736 117.781 467.839 117.904 467.944C118.608 468.52 119.184 469.128 119.632 469.768C120.08 470.344 119.984 471.112 119.344 472.072C119.276 472.171 119.208 472.272 119.138 472.375ZM132.948 502.391C132.957 502.429 132.967 502.466 132.976 502.504C133.872 505.832 134.288 509.32 134.224 512.968C134.16 516.488 134.096 519.816 134.032 522.952C134.032 526.024 133.776 528.904 133.264 531.592C133.648 532.616 133.872 533.736 133.936 534.952C134 536.104 134.032 537.32 134.032 538.6C134.032 540.328 134.128 542.088 134.32 543.88C134.512 545.672 135.152 547.304 136.24 548.776C136.56 548.776 136.784 548.712 136.912 548.584C137.04 548.52 137.168 548.424 137.296 548.296C137.424 548.104 137.552 547.944 137.68 547.816C137.872 547.688 138.16 547.688 138.544 547.816C139.248 546.216 139.696 544.328 139.888 542.152C140.144 539.976 140.592 538.056 141.232 536.392C140.848 535.816 140.688 535.208 140.752 534.568L141.136 532.456C141.264 532.136 141.36 531.784 141.424 531.4L141.616 530.248C141.744 529.096 141.776 527.944 141.712 526.792C141.648 525.576 141.584 524.328 141.52 523.048L141.328 520.552C141.264 519.656 141.232 518.76 141.232 517.864C141.232 517.165 141.242 516.379 141.261 515.508C138.273 511.203 135.504 506.829 132.948 502.391ZM370.939 468.737C371.76 466.889 371.649 465.339 371.401 464.278C371.003 464.284 370.596 464.289 370.181 464.294C365.594 464.35 360.072 464.418 355.026 465.516C357.101 467.58 358.763 470.482 359.821 474.24C362.387 472.848 365.911 472.175 369.072 471.873C369.927 470.578 370.614 469.467 370.939 468.737ZM125.872 288.808C127.024 288.424 127.92 287.72 128.56 286.696C126.96 285.48 124.976 284.552 122.608 283.912C120.24 283.208 118.032 283.048 115.984 283.432L116.656 282.28C117.104 281.512 117.52 280.52 117.904 279.304C118.352 278.088 118.576 276.808 118.576 275.464C117.68 274.248 116.368 273.32 114.64 272.68C112.976 271.976 111.248 271.688 109.456 271.816C107.728 271.944 106.32 272.616 105.232 273.832C106.064 275.048 107.216 275.944 108.688 276.52C110.16 277.096 111.504 277.832 112.72 278.728C112.784 279.56 112.848 280.456 112.912 281.416C112.976 282.376 113.04 283.176 113.104 283.816L110.512 284.392C109.36 284.584 108.112 284.744 106.768 284.872C105.488 285 104.304 285.064 103.216 285.064C102.576 285.064 101.872 285.096 101.104 285.16C100.4 285.224 99.664 285.32 98.896 285.448L95.248 285.832C94.032 285.896 92.848 285.832 91.696 285.64C91.312 285.576 90.96 285.48 90.64 285.352L89.68 284.968C89.168 284.776 88.656 284.616 88.144 284.488C87.632 284.36 87.024 284.488 86.32 284.872C87.216 286.856 88.368 288.744 89.776 290.536C91.184 292.264 92.88 293.384 94.864 293.896C95.184 293.768 95.376 293.544 95.44 293.224C95.504 292.84 95.728 292.616 96.112 292.552C96.88 293.512 97.424 294.728 97.744 296.2C98.128 297.608 98.48 299.048 98.8 300.52C99.12 301.992 99.6 303.272 100.24 304.36C98.576 304.936 96.848 305.256 95.056 305.32C93.264 305.384 91.472 305.384 89.68 305.32H85.744C84.464 305.32 83.216 305.448 82 305.704C82.448 306.536 83.184 307.592 84.208 308.872C85.296 310.088 86.512 311.176 87.856 312.136C89.2 313.032 90.512 313.448 91.792 313.384C93.648 311.848 96.048 310.824 98.992 310.312C102 309.736 105.168 309.352 108.496 309.16C111.952 308.968 115.344 308.776 118.672 308.584C122.064 308.328 124.976 307.752 127.408 306.856C127.152 305.384 126.352 304.392 125.008 303.88C123.664 303.368 122.416 303.016 121.264 302.824C121.264 301.992 121.456 301.192 121.84 300.424C122.224 299.592 122.64 298.76 123.088 297.928C123.6 297.032 124.048 296.168 124.432 295.336C124.816 294.44 124.944 293.608 124.816 292.84C124.752 292.456 124.56 292.136 124.24 291.88C123.984 291.624 123.728 291.4 123.472 291.208C123.152 291.016 122.864 290.792 122.608 290.536C122.352 290.28 122.224 289.928 122.224 289.48C123.568 289.352 124.784 289.128 125.872 288.808ZM110.608 290.44C112.784 290.312 114.64 290.12 116.176 289.864C117.008 291.016 117.264 292.424 116.944 294.088C116.624 295.688 116.24 297.224 115.792 298.696C115.536 299.464 115.312 300.2 115.12 300.904C114.928 301.544 114.832 302.12 114.832 302.632C113.616 302.888 112.304 303.112 110.896 303.304C109.552 303.432 108.112 303.496 106.576 303.496C106.128 300.552 105.136 298.152 103.6 296.296C102.128 294.376 100.272 292.904 98.032 291.88C99.824 291.432 101.808 291.112 103.984 290.92C106.224 290.728 108.432 290.568 110.608 290.44Z" fill="#040000"/>
<path d="M795.144 86.832C795.272 87.344 795.112 87.792 794.664 88.176C794.28 88.496 793.896 88.752 793.512 88.944C793.128 89.2 792.84 89.424 792.648 89.616C792.52 89.744 792.648 89.904 793.032 90.096C792.008 90.288 791.016 90.608 790.056 91.056C789.096 91.568 788.168 91.856 787.272 91.92C784.52 92.112 781.896 91.568 779.4 90.288C776.968 89.072 775.016 87.792 773.544 86.448C770.728 83.824 767.912 81.168 765.096 78.48C762.344 75.792 759.624 73.072 756.936 70.32C756.872 71.28 756.872 72.4 756.936 73.68C757 74.96 757.096 76.336 757.224 77.808C757.48 80.304 757.64 82.928 757.704 85.68C757.832 88.368 757.64 90.864 757.128 93.168C756.616 95.472 755.56 97.296 753.96 98.64C750.312 97.68 746.984 96.4 743.976 94.8C740.968 93.2 738.152 91.408 735.528 89.424V87.984C734.504 87.728 733.64 87.28 732.936 86.64C732.296 86 731.368 85.648 730.152 85.584C732.264 85.648 734.216 85.936 736.008 86.448C737.864 86.96 739.784 87.472 741.768 87.984C743.752 88.496 745.992 88.784 748.488 88.848C749.32 87.632 749.832 86.032 750.024 84.048C750.216 82 750.248 79.856 750.12 77.616C749.992 75.376 749.832 73.392 749.64 71.664C747.976 71.856 746.568 72.496 745.416 73.584C744.328 74.672 743.272 75.728 742.248 76.752C741.224 77.776 740.008 78.352 738.6 78.48C738.664 78.928 738.632 79.216 738.504 79.344C738.376 79.408 738.216 79.44 738.024 79.44C737.832 79.504 737.64 79.6 737.448 79.728C737.32 79.792 737.256 80.08 737.256 80.592C735.656 81.168 734.248 81.936 733.032 82.896C731.88 83.792 730.76 84.752 729.672 85.776C728.008 87.248 726.184 88.624 724.2 89.904C722.28 91.12 719.528 91.696 715.944 91.632C715.112 91.12 714.344 90.608 713.64 90.096C713 89.648 712.52 89.04 712.2 88.272C718.28 85.84 723.688 82.8 728.424 79.152C733.16 75.44 737.576 71.472 741.672 67.248C739.816 67.568 737.832 67.856 735.72 68.112C733.672 68.304 731.72 68.656 729.864 69.168C728.008 69.616 726.472 70.448 725.256 71.664C723.08 71.28 720.968 70.576 718.92 69.552C716.872 68.464 714.888 67.344 712.968 66.192C713.608 65.488 714.248 65.104 714.888 65.04C715.592 64.976 716.36 64.976 717.192 65.04C717.576 65.04 717.96 65.04 718.344 65.04C718.792 65.04 719.272 65.04 719.784 65.04C722.024 64.464 724.744 64.016 727.944 63.696C731.144 63.312 734.28 62.992 737.352 62.736C739.016 62.608 741 62.448 743.304 62.256C745.608 62 747.496 61.872 748.968 61.872C749.096 61.552 749.096 61.04 748.968 60.336C748.904 59.568 748.776 58.864 748.584 58.224C748.072 57.904 747.464 57.776 746.76 57.84C746.056 57.84 745.288 57.872 744.456 57.936C743.112 58.128 741.768 58.16 740.424 58.032C739.08 57.84 738.12 56.944 737.544 55.344C737.16 53.552 736.936 51.6 736.872 49.488C736.872 47.312 736.904 45.04 736.968 42.672C736.968 40.944 736.968 39.152 736.968 37.296C737.032 35.44 737 33.52 736.872 31.536C736.36 30.832 735.752 30.256 735.048 29.808C734.408 29.296 733.704 28.816 732.936 28.368C733.256 27.728 733.416 27.248 733.416 26.928C733.416 26.608 733.48 26.16 733.608 25.584C734.824 25.008 736.008 24.72 737.16 24.72C738.312 24.656 739.4 24.592 740.424 24.528C741.512 24.464 742.44 24.176 743.208 23.664C744.488 22.768 745.384 21.552 745.896 20.016C746.408 18.48 747.176 17.008 748.2 15.6C747.88 15.28 747.496 14.96 747.048 14.64C746.664 14.32 746.216 14 745.704 13.68C744.936 13.232 744.232 12.752 743.592 12.24C743.016 11.728 742.728 11.12 742.728 10.416C743.24 9.456 743.976 9.072 744.936 9.264C745.96 9.392 746.888 9.616 747.72 9.936C749.896 9.35999 751.784 9.456 753.384 10.224C755.048 10.928 756.424 11.952 757.512 13.296C757.192 15.28 756.424 16.912 755.208 18.192C754.056 19.472 753.064 20.912 752.232 22.512C753.448 22.512 754.632 22.48 755.784 22.416C756.936 22.352 758.056 22.256 759.144 22.128C761.256 22 763.272 21.936 765.192 21.936C767.112 21.872 768.904 22.16 770.568 22.8C772.296 23.44 773.864 24.656 775.272 26.448C774.76 26.32 774.504 26.352 774.504 26.544C774.568 26.672 774.728 26.864 774.984 27.12C775.176 27.44 775.368 27.792 775.56 28.176C775.752 28.496 775.784 28.848 775.656 29.232C773.8 29.68 772.456 30.704 771.624 32.304C770.856 33.904 770.408 35.824 770.28 38.064C770.152 40.304 770.088 42.64 770.088 45.072C770.152 47.568 770.088 50 769.896 52.368C769.768 54.736 769.192 56.624 768.168 58.032C767.208 58.096 766.376 58.064 765.672 57.936C764.968 57.808 764.264 57.648 763.56 57.456C762.664 57.2 761.64 56.976 760.488 56.784C759.336 56.592 757.8 56.624 755.88 56.88C756.136 57.2 756.296 57.52 756.36 57.84C756.424 58.096 756.424 58.352 756.36 58.608C756.36 58.8 756.36 59.024 756.36 59.28C756.424 59.536 756.52 59.792 756.648 60.048C757.608 60.496 758.824 60.752 760.296 60.816C761.832 60.816 763.432 60.752 765.096 60.624C765.992 60.624 766.888 60.592 767.784 60.528C768.68 60.464 769.544 60.464 770.376 60.528C772.168 60.592 773.96 60.56 775.752 60.432C777.608 60.304 779.144 59.824 780.36 58.992C781.832 59.248 783.432 59.568 785.16 59.952C786.952 60.272 788.616 60.848 790.152 61.68C791.688 62.512 792.776 63.792 793.416 65.52C792.712 65.584 792.136 65.84 791.688 66.288C791.304 66.672 790.568 66.896 789.48 66.96C787.304 67.088 785.032 67.088 782.664 66.96C780.296 66.768 777.96 66.576 775.656 66.384C772.904 66.192 770.216 66.032 767.592 65.904C764.968 65.712 762.472 65.744 760.104 66C761.64 68.048 763.624 69.712 766.056 70.992C768.488 72.208 771.112 73.296 773.928 74.256C776.744 75.152 779.528 76.112 782.28 77.136C785.096 78.096 787.624 79.344 789.864 80.88C792.168 82.352 793.928 84.336 795.144 86.832ZM760.872 51.312C760.872 50.672 760.872 50.032 760.872 49.392C760.936 48.688 761 47.984 761.064 47.28C761.192 44.4 761.288 41.264 761.352 37.872C761.416 34.416 761.256 31.12 760.872 27.984C759.4 27.408 757.704 27.184 755.784 27.312C753.864 27.44 751.944 27.696 750.024 28.08C748.168 28.464 746.536 28.88 745.128 29.328C745.192 30.032 745.192 30.832 745.128 31.728C745.064 32.624 745 33.552 744.936 34.512C744.872 35.152 744.808 35.792 744.744 36.432C744.744 37.008 744.744 37.552 744.744 38.064C746.472 37.488 748.392 37.2 750.504 37.2C752.68 37.2 754.664 37.424 756.456 37.872C758.312 38.32 759.624 39.024 760.392 39.984C758.6 40.816 756.264 41.424 753.384 41.808C750.504 42.128 747.688 42.512 744.936 42.96C744.872 43.536 744.84 44.272 744.84 45.168C744.84 46 744.84 46.896 744.84 47.856C744.84 48.688 744.84 49.552 744.84 50.448C744.904 51.28 744.904 52.048 744.84 52.752C745.928 52.752 746.984 52.72 748.008 52.656C749.096 52.528 750.152 52.432 751.176 52.368C752.2 52.24 753.192 52.144 754.152 52.08C755.176 51.952 756.232 51.888 757.32 51.888C757.512 51.888 757.832 51.92 758.28 51.984C758.792 52.048 759.304 52.08 759.816 52.08C760.328 52.016 760.68 51.76 760.872 51.312ZM795.336 27.6C793.48 28.048 791.848 28.72 790.44 29.616C789.096 30.512 787.816 31.44 786.6 32.4C784.936 33.744 783.24 34.864 781.512 35.76C779.848 36.656 777.8 36.816 775.368 36.24C775.112 36.304 774.856 36.336 774.6 36.336C774.408 36.336 774.184 36.336 773.928 36.336C773.48 36.272 773.128 36.24 772.872 36.24C774.472 34.064 776.36 32.176 778.536 30.576C780.712 28.976 782.728 27.216 784.584 25.296C784.328 24.976 783.912 24.688 783.336 24.432C782.76 24.176 782.216 23.856 781.704 23.472C781.256 23.024 781 22.352 780.936 21.456C783.112 21.264 785.224 21.36 787.272 21.744C789.384 22.064 791.176 22.704 792.648 23.664C794.12 24.624 795.016 25.936 795.336 27.6ZM734.28 46.992C733.832 48.272 733.096 49.392 732.072 50.352C731.112 51.312 730.088 52.272 729 53.232C727.976 54.128 727.08 55.088 726.312 56.112C725.544 57.136 725.128 58.352 725.064 59.76C721.928 60.336 719.4 60.016 717.48 58.8C715.624 57.52 714.056 55.664 712.776 53.232C713.352 53.104 713.896 53.104 714.408 53.232C714.984 53.296 715.528 53.392 716.04 53.52C716.424 53.648 716.808 53.744 717.192 53.808C717.64 53.872 718.088 53.872 718.536 53.808C719.304 53.616 720.104 53.136 720.936 52.368C721.832 51.536 722.696 50.608 723.528 49.584C724.36 48.56 725.16 47.632 725.928 46.8C726.76 45.968 727.496 45.456 728.136 45.264C728.776 45.072 729.352 45.072 729.864 45.264C730.44 45.392 731.048 45.616 731.688 45.936C732.072 46.128 732.456 46.32 732.84 46.512C733.288 46.704 733.768 46.864 734.28 46.992ZM791.88 56.688C790.024 57.328 788.264 57.328 786.6 56.688C785 56.048 783.464 55.28 781.992 54.384C781.608 54.128 781.192 53.904 780.744 53.712C780.36 53.456 779.976 53.232 779.592 53.04C779.336 50.288 778.504 48.112 777.096 46.512C775.688 44.848 774.312 43.184 772.968 41.52C772.904 41.136 773 40.912 773.256 40.848C776.136 41.232 778.92 42.128 781.608 43.536C784.36 44.88 786.664 46.672 788.52 48.912C790.44 51.152 791.56 53.744 791.88 56.688ZM731.208 38.544C731.144 38.608 731.048 38.672 730.92 38.736C730.472 38.928 729.928 39.12 729.288 39.312C728.648 39.44 727.752 39.376 726.6 39.12C725.512 38.864 723.944 38.256 721.896 37.296C720.872 35.312 719.944 33.392 719.112 31.536C718.28 29.68 717.128 28.24 715.656 27.216C718.664 26.64 721.288 26.928 723.528 28.08C725.832 29.168 727.656 30.704 729 32.688C730.408 34.608 731.144 36.56 731.208 38.544ZM753.192 111.408C752.36 112.88 751.368 114 750.216 114.768C749.064 115.472 747.848 116.08 746.568 116.592C745.288 117.104 744.072 117.872 742.92 118.896C739.912 121.52 737.32 125.072 735.144 129.552C733.032 133.968 731.464 138.8 730.44 144.048C729.416 149.296 729.032 154.512 729.288 159.696C729.608 164.944 729.864 170.032 730.056 174.96C730.312 179.888 730.888 184.816 731.784 189.744C730.568 189.616 729.544 189.04 728.712 188.016C727.88 187.056 727.144 186 726.504 184.848C724.776 181.648 723.784 178.096 723.528 174.192C723.272 170.224 723.048 165.712 722.856 160.656C722.664 155.216 722.76 150.096 723.144 145.296C723.592 140.496 724.712 135.824 726.504 131.28C727.016 129.872 727.592 128.432 728.232 126.96C728.936 125.488 729.704 124.144 730.536 122.928C732.968 119.664 735.976 117.04 739.56 115.056C743.208 113.072 747.752 111.856 753.192 111.408ZM784.104 144.528C782.184 146.384 779.816 147.408 777 147.6C774.248 147.728 771.528 147.728 768.84 147.6C767.624 147.536 766.44 147.504 765.288 147.504C764.136 147.504 763.08 147.568 762.12 147.696C758.856 147.248 755.816 146.544 753 145.584C750.248 144.624 747.816 143.344 745.704 141.744C749.224 140.784 753.224 140.08 757.704 139.632C762.184 139.184 766.664 139.12 771.144 139.44C775.688 139.76 779.72 140.656 783.24 142.128C783.24 142.576 783.336 142.96 783.528 143.28C783.72 143.536 783.912 143.952 784.104 144.528ZM788.136 181.392C788.072 181.904 787.656 181.84 786.888 181.2C786.696 181.072 786.472 180.944 786.216 180.816C786.024 180.624 785.832 180.528 785.64 180.528C784.744 180.784 783.816 180.848 782.856 180.72C781.896 180.592 780.968 180.432 780.072 180.24C779.816 180.176 779.624 180.144 779.496 180.144C779.432 179.504 779.528 178.992 779.784 178.608C779.336 178.672 779.112 178.832 779.112 179.088C779.112 179.28 779.016 179.44 778.824 179.568C774.152 177.84 770.12 175.472 766.728 172.464C763.4 169.456 760.232 166.256 757.224 162.864C759.08 162.16 760.936 162.032 762.792 162.48C764.712 162.928 766.568 163.632 768.36 164.592C770.152 165.552 771.848 166.544 773.448 167.568C773.832 167.824 774.216 168.08 774.6 168.336C774.984 168.592 775.368 168.816 775.752 169.008C778.12 170.416 780.296 171.92 782.28 173.52C784.264 175.12 786.024 176.624 787.56 178.032C787.432 178.608 787.4 179.088 787.464 179.472C787.592 179.856 787.72 180.24 787.848 180.624C787.976 180.944 788.072 181.2 788.136 181.392ZM792.36 283.056C790.248 284.016 788.04 284.4 785.736 284.208C783.432 284.016 781.096 283.696 778.728 283.248C777.512 282.992 776.264 282.768 774.984 282.576C773.768 282.384 772.552 282.256 771.336 282.192C767.368 282.064 763.112 282.096 758.568 282.288C754.024 282.544 749.576 282.864 745.224 283.248C742.92 283.44 740.808 283.632 738.888 283.824C737.032 284.08 734.888 284.4 732.456 284.784C731.88 284.848 731.4 285.04 731.016 285.36C730.696 285.744 730.344 286.096 729.96 286.416C726.824 286.8 724.36 286.448 722.568 285.36C720.776 284.336 719.112 283.184 717.576 281.904C717.128 281.52 716.68 281.136 716.232 280.752C715.784 280.368 715.336 280.016 714.888 279.696C715.528 278.992 716.328 278.704 717.288 278.832C718.248 278.896 719.144 279.088 719.976 279.408C724.52 277.936 729.448 277.136 734.76 277.008C740.136 276.816 745.608 276.592 751.176 276.336C751.432 274.864 751.528 273.392 751.464 271.92C751.4 270.384 751.336 268.88 751.272 267.408C751.144 266.192 751.048 265.04 750.984 263.952C750.984 262.864 751.048 261.84 751.176 260.88C750.92 260.88 750.6 260.88 750.216 260.88C749.896 260.88 749.512 260.88 749.064 260.88C747.976 260.88 746.824 260.912 745.608 260.976C744.392 260.976 743.336 261.072 742.44 261.264C741.544 261.456 741.064 261.808 741 262.32C738.888 262.128 737.128 261.648 735.72 260.88C734.312 260.112 733.064 259.184 731.976 258.096C730.952 257.008 729.896 255.952 728.808 254.928C729.256 254.928 729.768 254.96 730.344 255.024C730.92 255.024 731.496 255.024 732.072 255.024C734.888 255.088 738.024 255.152 741.48 255.216C744.936 255.216 747.912 254.992 750.408 254.544C750.728 252.944 750.888 251.408 750.888 249.936C750.888 248.464 750.824 246.896 750.696 245.232C750.632 244.336 750.568 243.44 750.504 242.544C750.504 241.584 750.504 240.592 750.504 239.568C748.776 239.312 747.112 239.28 745.512 239.472C743.912 239.664 742.376 239.888 740.904 240.144C740.072 240.272 739.24 240.4 738.408 240.528C737.64 240.656 736.904 240.72 736.2 240.72C736.008 240.72 735.816 240.688 735.624 240.624C735.432 240.56 735.24 240.496 735.048 240.432C734.792 240.304 734.536 240.208 734.28 240.144C734.088 240.08 733.864 240.08 733.608 240.144C732.264 240.592 731.208 241.424 730.44 242.64C729.736 243.856 729 245.104 728.232 246.384C727.528 247.6 726.408 248.56 724.872 249.264C724.68 249.072 724.616 248.88 724.68 248.688C724.808 248.432 724.872 248.304 724.872 248.304C724.232 248.688 723.528 248.944 722.76 249.072C721.992 249.136 721.256 249.2 720.552 249.264C720.232 249.264 719.912 249.264 719.592 249.264C719.336 249.264 719.08 249.296 718.824 249.36C719.464 247.824 720.36 246.192 721.512 244.464C722.664 242.672 723.784 240.816 724.872 238.896C725.96 236.912 726.696 234.928 727.08 232.944C727.592 232.496 728.136 231.824 728.712 230.928C729.288 230.032 729.736 229.104 730.056 228.144C730.376 227.12 730.44 226.256 730.248 225.552C730.056 224.784 729.48 224.368 728.52 224.304C728.52 223.216 728.136 222.224 727.368 221.328C726.664 220.368 725.864 219.568 724.968 218.928C725.224 218.224 725.704 217.872 726.408 217.872C727.176 217.808 727.944 217.84 728.712 217.968C729.288 218.032 729.832 218.064 730.344 218.064C730.92 218.064 731.336 217.904 731.592 217.584C732.488 217.968 733.48 218.16 734.568 218.16C735.72 218.096 736.648 218.48 737.352 219.312C737.416 219.376 737.544 219.504 737.736 219.696C738.376 220.336 738.984 221.072 739.56 221.904C740.136 222.736 740.392 223.664 740.328 224.688C740.264 225.392 740.008 226.064 739.56 226.704C739.176 227.344 738.76 227.984 738.312 228.624C737.736 229.456 737.224 230.288 736.776 231.12C736.328 231.952 736.2 232.816 736.392 233.712C737.672 234.032 739.208 234.16 741 234.096C742.792 234.032 744.52 233.904 746.184 233.712C746.888 233.712 747.56 233.68 748.2 233.616C748.84 233.552 749.448 233.52 750.024 233.52C750.344 230.64 750.28 227.824 749.832 225.072C749.448 222.256 748.904 219.664 748.2 217.296C747.496 214.928 746.824 213.008 746.184 211.536C746.12 211.216 745.928 211.12 745.608 211.248C745.288 211.312 745.064 211.216 744.936 210.96C744.936 210.448 744.904 210.032 744.84 209.712C744.776 209.392 744.712 209.072 744.648 208.752C744.52 208.432 744.424 208.144 744.36 207.888C744.296 207.568 744.328 207.216 744.456 206.832C745.8 206.576 746.888 206.64 747.72 207.024C748.616 207.408 749.448 207.856 750.216 208.368C750.792 208.752 751.4 209.104 752.04 209.424C752.744 209.744 753.544 209.968 754.44 210.096C754.248 210.352 754.152 210.672 754.152 211.056C755.752 211.504 757 212.304 757.896 213.456C758.792 214.608 759.688 215.792 760.584 217.008C760.072 219.248 759.688 221.68 759.432 224.304C759.24 226.864 759.08 229.456 758.952 232.08C761.192 232.464 763.24 232.432 765.096 231.984C767.016 231.472 769 230.8 771.048 229.968C772.136 230.288 773.384 230.672 774.792 231.12C776.2 231.504 777.576 232.048 778.92 232.752C780.328 233.456 781.448 234.48 782.28 235.824C781.96 236.656 781.48 237.168 780.84 237.36C780.2 237.488 779.496 237.552 778.728 237.552C778.216 237.552 777.704 237.584 777.192 237.648C776.68 237.712 776.168 237.872 775.656 238.128C773.352 237.552 771.208 237.36 769.224 237.552C767.304 237.68 765.384 237.872 763.464 238.128C762.696 238.256 761.928 238.384 761.16 238.512C760.392 238.576 759.592 238.64 758.76 238.704C758.568 240.624 758.44 242.32 758.376 243.792C758.376 245.2 758.408 246.608 758.472 248.016C758.472 248.912 758.472 249.84 758.472 250.8C758.472 251.696 758.44 252.688 758.376 253.776C760.744 253.136 763.24 252.88 765.864 253.008C768.488 253.072 770.856 253.584 772.968 254.544C775.144 255.504 776.68 257.04 777.576 259.152C774.248 259.536 770.888 259.76 767.496 259.824C764.168 259.824 761.16 260.016 758.472 260.4C758.408 263.28 758.312 265.936 758.184 268.368C758.056 270.8 757.832 273.296 757.512 275.856C758.792 276.048 760.072 276.144 761.352 276.144C762.696 276.144 763.976 276.112 765.192 276.048C766.472 275.984 767.688 275.952 768.84 275.952C769.992 275.888 771.112 275.984 772.2 276.24C772.776 276.176 773.096 275.888 773.16 275.376C773.288 274.8 773.576 274.448 774.024 274.32C775.368 273.872 776.648 273.808 777.864 274.128C779.08 274.448 780.36 274.864 781.704 275.376C782.088 275.504 782.472 275.664 782.856 275.856C783.24 275.984 783.624 276.112 784.008 276.24C784.264 276.368 784.552 276.464 784.872 276.528C785.192 276.592 785.512 276.688 785.832 276.816C786.92 277.136 787.976 277.52 789 277.968C790.088 278.352 790.952 278.96 791.592 279.792C792.232 280.56 792.488 281.648 792.36 283.056ZM777 362.064C776.744 363.6 775.848 364.784 774.312 365.616C772.776 366.384 771.016 366.864 769.032 367.056C767.112 367.184 765.32 367.056 763.656 366.672C764.552 366.032 765.48 365.456 766.44 364.944C767.4 364.432 768.232 363.856 768.936 363.216C769.64 362.512 770.056 361.616 770.184 360.528C770.376 359.12 770.056 357.776 769.224 356.496C768.456 355.216 767.624 354 766.728 352.848C766.28 352.336 765.864 351.856 765.48 351.408C765.16 350.896 764.872 350.416 764.616 349.968C762.12 351.76 759.208 353.36 755.88 354.768C752.616 356.176 748.936 356.752 744.84 356.496C743.368 355.536 742.504 354.352 742.248 352.944C742.056 351.536 742.248 350 742.824 348.336C743.464 346.672 744.296 345.008 745.32 343.344C746.344 341.616 747.368 339.984 748.392 338.448C749.032 337.424 749.64 336.496 750.216 335.664C750.792 334.768 751.24 333.968 751.56 333.264C750.856 333.008 750.216 332.944 749.64 333.072C749.064 333.2 748.52 333.392 748.008 333.648C747.624 333.776 747.24 333.904 746.856 334.032C746.472 334.16 746.088 334.224 745.704 334.224C744.424 334.16 743.208 333.808 742.056 333.168C740.904 332.528 739.816 331.792 738.792 330.96C737.768 330.128 736.776 329.456 735.816 328.944C737.544 328.304 739.368 327.792 741.288 327.408C743.272 326.96 745.256 326.544 747.24 326.16C746.6 324.432 745.992 322.352 745.416 319.92C744.904 317.424 744.744 314.96 744.936 312.528C745.192 310.096 746.088 308.112 747.624 306.576C749.096 306.256 750.248 306.032 751.08 305.904C751.976 305.712 752.968 305.552 754.056 305.424C755.784 306.576 757.288 307.952 758.568 309.552C759.848 311.088 761.16 312.624 762.504 314.16C763.848 315.632 765.48 316.848 767.4 317.808C769.704 321.52 771.336 325.296 772.296 329.136C773.256 332.976 773.064 337.04 771.72 341.328C770.696 341.968 770.088 342.768 769.896 343.728C769.704 344.688 769.288 345.648 768.648 346.608C768.904 347.696 769.416 348.72 770.184 349.68C770.952 350.64 771.752 351.632 772.584 352.656C773.864 354 774.984 355.44 775.944 356.976C776.968 358.448 777.32 360.144 777 362.064ZM761.832 380.592C761.384 381.04 761.224 381.456 761.352 381.84C761.544 382.224 761.384 382.64 760.872 383.088C755.048 383.408 749.416 382.704 743.976 380.976C738.536 379.312 733.224 377.136 728.04 374.448C727.848 374.128 727.592 373.808 727.272 373.488C727.016 373.104 726.728 372.72 726.408 372.336C725.704 371.376 725 370.416 724.296 369.456C723.656 368.432 723.304 367.376 723.24 366.288C723.176 365.2 723.656 364.112 724.68 363.024C725.32 363.088 726.056 363.088 726.888 363.024C727.784 362.96 728.584 362.864 729.288 362.736C729.736 362.672 730.056 362.64 730.248 362.64C730.248 362.896 730.216 363.184 730.152 363.504C730.152 363.824 730.152 364.176 730.152 364.56C730.088 365.328 730.024 366.16 729.96 367.056C729.96 367.952 730.152 368.848 730.536 369.744C732.648 371.472 734.984 372.848 737.544 373.872C740.168 374.832 742.856 375.632 745.608 376.272C748.36 376.912 751.112 377.552 753.864 378.192C756.68 378.832 759.336 379.632 761.832 380.592ZM766.824 324.624C766.312 322.64 765.416 320.72 764.136 318.864C762.92 317.008 761.416 315.568 759.624 314.544C757.896 313.52 755.944 313.36 753.768 314.064C753.384 315.792 753.16 317.488 753.096 319.152C753.032 320.752 753.256 322.448 753.768 324.24C754.984 323.984 756.424 323.792 758.088 323.664C759.752 323.472 761 322.864 761.832 321.84C762.6 322.352 763.4 322.832 764.232 323.28C765.128 323.728 765.992 324.176 766.824 324.624ZM760.008 344.4C759.368 343.312 758.696 342.288 757.992 341.328C757.352 340.368 756.456 339.632 755.304 339.12C754.344 340.784 753.256 342.608 752.04 344.592C750.888 346.512 750.024 348.4 749.448 350.256C751.624 349.68 753.512 348.848 755.112 347.76C756.776 346.672 758.408 345.552 760.008 344.4ZM766.824 328.272C766.312 329.232 765.544 329.968 764.52 330.48C763.496 330.992 762.472 331.504 761.448 332.016C760.424 332.528 759.624 333.264 759.048 334.224C759.432 335.568 760.04 336.688 760.872 337.584C761.768 338.416 762.6 339.344 763.368 340.368C763.496 340.176 763.656 339.92 763.848 339.6C764.872 337.936 765.832 336.144 766.728 334.224C767.624 332.24 767.656 330.256 766.824 328.272ZM759.048 416.4C757.64 417.68 756.264 418.576 754.92 419.088C753.576 419.6 752.168 419.984 750.696 420.24C749.288 420.432 747.624 420.784 745.704 421.296C744.68 422.96 743.848 424.912 743.208 427.152C742.632 429.392 741.992 431.696 741.288 434.064C740.648 436.368 739.752 438.512 738.6 440.496C738.856 440.688 738.952 440.944 738.888 441.264C738.888 441.52 738.824 441.776 738.696 442.032C738.568 442.224 738.472 442.448 738.408 442.704C738.408 442.896 738.472 443.088 738.6 443.28C737.448 445.2 736.52 447.504 735.816 450.192C735.112 452.88 734.376 455.6 733.608 458.352C732.904 461.04 731.88 463.44 730.536 465.552C729.064 464.848 728.104 463.92 727.656 462.768C727.208 461.552 726.504 460.336 725.544 459.12C725.608 458.928 725.736 458.64 725.928 458.256C726.12 457.808 726.28 457.36 726.408 456.912C726.536 456.4 726.472 455.888 726.216 455.376C726.6 455.632 726.856 455.664 726.984 455.472C727.112 455.28 727.208 455.024 727.272 454.704C727.4 454.448 727.496 454.224 727.56 454.032C727.688 453.776 727.848 453.616 728.04 453.552C728.616 450.8 729.192 448.304 729.768 446.064C730.344 443.76 731.336 441.808 732.744 440.208C733.064 438.288 733.416 436.816 733.8 435.792C734.184 434.704 734.536 433.68 734.856 432.72C735.176 431.76 735.4 430.544 735.528 429.072C735.848 428.752 736.136 428.432 736.392 428.112C736.648 427.728 736.776 427.216 736.776 426.576C735.368 426.32 733.928 426.32 732.456 426.576C730.984 426.768 729.48 426.992 727.944 427.248C726.024 427.632 724.072 427.952 722.088 428.208C720.168 428.4 718.248 428.176 716.328 427.536C715.496 427.216 714.664 426.64 713.832 425.808C713.064 424.912 712.136 424.336 711.048 424.08C711.048 423.76 711.24 423.504 711.624 423.312C711.816 423.184 711.976 423.056 712.104 422.928C712.296 422.8 712.36 422.576 712.296 422.256C717.352 422.128 722.024 421.456 726.312 420.24C730.664 419.024 735.176 417.744 739.848 416.4C740.104 414.224 740.36 411.792 740.616 409.104C740.872 406.416 741.448 403.984 742.344 401.808C743.624 402.064 744.52 402.768 745.032 403.92C745.608 405.072 745.96 406.416 746.088 407.952C746.216 409.424 746.28 410.864 746.28 412.272C746.344 412.592 746.376 412.912 746.376 413.232C746.376 413.552 746.376 413.872 746.376 414.192C748.232 413.936 749.96 413.584 751.56 413.136C753.224 412.624 754.888 412.368 756.552 412.368C756.616 412.432 756.616 412.56 756.552 412.752C756.488 412.944 756.392 413.008 756.264 412.944C757.032 413.392 757.48 413.968 757.608 414.672C757.736 415.312 758.216 415.888 759.048 416.4ZM793.704 421.296C794.728 422.192 795.08 423.184 794.76 424.272C794.504 425.296 794.12 426.32 793.608 427.344C793.544 427.536 793.448 427.728 793.32 427.92C793.256 428.048 793.192 428.208 793.128 428.4C790.376 429.424 787.784 430.576 785.352 431.856C782.984 433.072 780.712 434.608 778.536 436.464C778.536 436.464 778.568 436.432 778.632 436.368C778.824 436.112 778.792 435.952 778.536 435.888C777 437.616 775.336 439.312 773.544 440.976C771.752 442.64 770.12 444.24 768.648 445.776C767.176 447.312 766.152 448.752 765.576 450.096C764.936 450.416 764.552 450.672 764.424 450.864C764.296 451.056 763.848 451.44 763.08 452.016C763.4 452.784 763.4 453.488 763.08 454.128C762.824 454.704 762.504 455.248 762.12 455.76C761.864 456.208 761.64 456.624 761.448 457.008C761.256 457.328 761.16 457.712 761.16 458.16C761.224 459.696 761.864 460.912 763.08 461.808C764.36 462.64 765.928 463.344 767.784 463.92C769.64 464.496 771.496 465.072 773.352 465.648C775.208 466.224 776.776 467.024 778.056 468.048C779.336 469.008 780.008 470.352 780.072 472.08C779.24 473.104 778.152 473.904 776.808 474.48C775.464 475.056 774.024 475.536 772.488 475.92C771.016 476.304 769.608 476.784 768.264 477.36C766.984 477.936 765.96 478.768 765.192 479.856C765.384 478.896 765.832 478 766.536 477.168C767.304 476.336 768.04 475.44 768.744 474.48C769.512 473.52 769.992 472.432 770.184 471.216C767.048 470.064 764.168 468.656 761.544 466.992C758.92 465.264 756.936 462.928 755.592 459.984C755.592 457.744 756.136 455.696 757.224 453.84C758.312 451.92 759.208 449.968 759.912 447.984C760.168 447.728 760.584 447.6 761.16 447.6C763.208 443.312 765.8 439.6 768.936 436.464C772.072 433.264 775.176 430.064 778.248 426.864C777.48 426.48 776.552 426.288 775.464 426.288C774.44 426.224 773.384 426.192 772.296 426.192C771.016 426.192 769.736 426.16 768.456 426.096C767.24 425.968 766.152 425.616 765.192 425.04C766.664 423.504 768.584 422.288 770.952 421.392C773.384 420.496 775.976 419.92 778.728 419.664C781.48 419.344 784.168 419.344 786.792 419.664C789.416 419.92 791.72 420.464 793.704 421.296ZM781.704 551.28C781.576 551.344 781.416 551.344 781.224 551.28C781.096 551.216 781.064 551.12 781.128 550.992C780.04 553.424 778.44 555.76 776.328 558C774.28 560.176 771.816 562.032 768.936 563.568C766.12 565.04 763.048 565.904 759.72 566.16C759.848 565.776 760.072 565.488 760.392 565.296C760.712 565.04 760.904 564.688 760.968 564.24C760.904 563.984 760.744 563.984 760.488 564.24C761.064 563.216 762.024 562.192 763.368 561.168C764.712 560.144 765.992 559.312 767.208 558.672C768.104 557.392 768.968 556.112 769.8 554.832C770.696 553.488 771.784 552.4 773.064 551.568C773.576 550.032 774.248 548.528 775.08 547.056C775.976 545.52 776.648 544.24 777.096 543.216C777.096 542.832 777.192 542.704 777.384 542.832C777.512 542.896 777.608 542.928 777.672 542.928C778.376 540.816 778.984 538.192 779.496 535.056C780.072 531.92 780.424 528.688 780.552 525.36C780.68 521.968 780.456 518.928 779.88 516.24C782.248 517.392 784.072 519.024 785.352 521.136C786.632 523.248 787.432 525.648 787.752 528.336C788.136 530.96 788.072 533.648 787.56 536.4C787.112 539.088 786.344 541.68 785.256 544.176C784.168 546.608 782.792 548.656 781.128 550.32C781.192 550.384 781.256 550.448 781.32 550.512C781.64 550.768 781.768 551.024 781.704 551.28ZM738.984 552.24C737.704 552.56 736.424 552.464 735.144 551.952C733.928 551.376 732.84 550.608 731.88 549.648C730.92 548.688 730.184 547.696 729.672 546.672C728.648 544.368 727.688 541.456 726.792 537.936C725.896 534.416 724.904 530.928 723.816 527.472C722.6 523.696 721.288 520.272 719.88 517.2C718.536 514.128 717.384 511.344 716.424 508.848C718.6 510.32 720.84 511.856 723.144 513.456C725.512 514.992 727.496 516.976 729.096 519.408C730.76 521.84 732.008 524.752 732.84 528.144C733.672 531.472 734.6 534.64 735.624 537.648C736.264 539.632 736.872 541.232 737.448 542.448C738.024 543.664 738.44 545.36 738.696 547.536C738.76 547.856 738.824 548.144 738.888 548.4C738.952 548.656 739.016 548.88 739.08 549.072C739.272 549.584 739.4 550.096 739.464 550.608C739.528 551.056 739.368 551.6 738.984 552.24Z" fill="black"/>
<path d="M889.245 657.26H596.905C583.4 657.26 572.452 665.599 572.452 675.887C572.452 686.175 583.4 694.515 596.905 694.515H597.602C605.619 696.003 611.574 701.497 611.574 708.064C611.574 714.992 604.973 720.716 596.309 721.821H420.841C406.739 721.821 395.303 730.532 395.303 741.28C395.303 752.027 406.739 760.739 420.841 760.739H783.824C797.926 760.739 809.362 752.027 809.362 741.28C809.362 730.532 797.926 721.821 783.824 721.821H781.705C773.049 720.716 766.44 714.991 766.44 708.064C766.44 701.497 772.395 696.003 780.412 694.515H889.245C902.75 694.515 913.698 686.175 913.698 675.887C913.698 665.599 902.75 657.26 889.245 657.26Z" fill="#C5C4C4" fill-opacity="0.78"/>
<path d="M25.7554 743.26H318.095C331.6 743.26 342.548 751.599 342.548 761.887C342.548 772.175 331.6 780.515 318.095 780.515H317.398C309.381 782.003 303.426 787.497 303.426 794.064C303.426 800.992 310.027 806.716 318.691 807.821H494.159C508.261 807.821 519.697 816.532 519.697 827.28C519.697 838.027 508.261 846.739 494.159 846.739H131.176C117.074 846.739 105.638 838.027 105.638 827.28C105.638 816.532 117.074 807.821 131.176 807.821H133.295C141.951 806.716 148.56 800.991 148.56 794.064C148.56 787.497 142.605 782.003 134.588 780.515H25.7554C12.2504 780.515 1.30225 772.175 1.30225 761.887C1.30225 751.599 12.2504 743.26 25.7554 743.26Z" fill="#D1D1D1"/>
</svg>
